<?xml version="1.0" encoding="UTF-8"?>
<svg viewBox="0 0 538 504" xmlns="http://www.w3.org/2000/svg">
<path d="m390.03 286v139.18l23.435 37.939 1.783 2.886h92.469l1.868-180h-119.56z" fill="#E6E6E6"/>
<path d="m390.03 286v139.08l24.005 37.915 1.474-177h-25.479z" opacity=".1"/>
<path d="m167.57 282v139.18l-23.051 37.939-1.754 2.885h-90.953l-1.8378-180h117.6z" fill="#E6E6E6"/>
<path d="m167.57 282v139.08l-23.083 37.915-1.416-177h24.499z" opacity=".1"/>
<path d="M538 278.924V287H36.2587V275.333L82.8887 252H496.966L538 278.924Z" fill="#E6E6E6"/>
<path d="M538 279.385V287H36.2587V276L538 279.385Z" opacity=".1"/>
<path d="m107.54 320h-21.952l-9.1463-5h41.159l-10.061 5z" fill="#3F3D56"/>
<path d="m107.54 348h-21.952l-9.1463-6h41.159l-10.061 6z" fill="#3F3D56"/>
<path d="m107.54 386h-21.952l-9.1463-6h41.159l-10.061 6z" fill="#3F3D56"/>
<path d="m107.54 424h-21.952l-9.1463-6h41.159l-10.061 6z" fill="#3F3D56"/>
<path d="m451.04 324h21.952l9.146-5h-41.158l10.06 5z" fill="#3F3D56"/>
<path d="m451.04 352h21.952l9.146-7h-41.158l10.06 7z" fill="#3F3D56"/>
<path d="m451.04 389h21.952l9.146-5h-41.158l10.06 5z" fill="#3F3D56"/>
<path d="m451.04 428h21.952l9.146-7h-41.158l10.06 7z" fill="#3F3D56"/>
<path d="m464.23 91h-188.59c-0.936-1e-4 -1.864 0.1822-2.729 0.5364-0.866 0.3543-1.652 0.8736-2.314 1.5283-0.663 0.6547-1.188 1.432-1.546 2.2875-0.359 0.8554-0.543 1.7723-0.543 2.6982v125.58c0 0.926 0.184 1.843 0.543 2.698 0.358 0.855 0.883 1.633 1.546 2.287 0.662 0.655 1.448 1.174 2.314 1.529 0.865 0.354 1.793 0.536 2.729 0.536h71.59l-2.682 16.928s-15.328 8.049-4.551 8.286c10.778 0.237 61.551 0 61.551 0s9.819 0-5.748-8.523l-2.523-16.691h70.951c0.937 0 1.864-0.182 2.73-0.536 0.865-0.355 1.651-0.874 2.314-1.529 0.662-0.654 1.187-1.432 1.546-2.287 0.358-0.855 0.543-1.772 0.542-2.698v-125.58c1e-3 -0.9259-0.184-1.8428-0.542-2.6982-0.359-0.8555-0.884-1.6328-1.546-2.2875-0.663-0.6547-1.449-1.174-2.314-1.5283-0.866-0.3542-1.793-0.5365-2.73-0.5364z" fill="#3F3D56"/>
<path d="M466.463 98H276.35V204H466.463V98Z" fill="#F2F2F2"/>
<path d="m371.41 96c0.541 0 0.98-0.4477 0.98-1s-0.439-1-0.98-1-0.98 0.4477-0.98 1 0.439 1 0.98 1z" fill="#F2F2F2"/>
<path d="m370.92 226c2.436 0 4.41-1.791 4.41-4s-1.974-4-4.41-4c-2.435 0-4.41 1.791-4.41 4s1.975 4 4.41 4z" fill="#F2F2F2"/>
<path d="m364.55 268.61v2.392h-128.38v-1.913l0.177-0.479 3.164-8.608h122.41l2.624 8.608z" fill="#3F3D56"/>
<path d="m414.48 266.45c-0.242 1.028-1.153 2.113-3.212 3.138-7.388 3.68-22.411-0.981-22.411-0.981s-11.575-1.963-11.575-7.115c0.325-0.221 0.664-0.422 1.015-0.601 3.106-1.637 13.405-5.676 31.667 0.171 1.345 0.421 2.547 1.205 3.471 2.266 0.41 0.401 0.718 0.893 0.899 1.436 0.182 0.543 0.232 1.121 0.146 1.686z" fill="#3F3D56"/>
<path d="m414.48 266.52c-9.052 3.479-17.121 3.739-25.401-2.03-3.131-2.323-6.923-3.575-10.817-3.574 3.109-1.65 13.418-5.722 31.698 0.173 1.346 0.424 2.549 1.214 3.474 2.284 0.41 0.404 0.718 0.9 0.9 1.447s0.232 1.13 0.146 1.7z" opacity=".1"/>
<path d="m403.26 265c1.894 0 3.43-0.448 3.43-1s-1.536-1-3.43-1-3.43 0.448-3.43 1 1.536 1 3.43 1z" fill="#F2F2F2"/>
<path d="m364.55 269v2h-128.38v-1.6l0.177-0.4h128.2z" opacity=".1"/>
<path d="m72.524 0.021684c-1.2773-0.10721-2.5562 0.18489-3.6674 0.83759-1.091 0.76391-1.7787 2.1022-2.4806 3.3476-2.6838 4.8184-6.3171 9.0144-10.67 12.322-3.1704 2.3746-7.201 5.3353-6.6586 9.7134 0.2862 1.4458 0.8086 2.832 1.5454 4.1003 2.9246 6.0361 10.906 10.701 10.121 17.588 2.9057-4.9735-0.981-7.4327 1.9248-12.406 1.3838-2.3685 3.7877-5.0421 5.877-3.5547 0.6995 0.4981 1.1589 1.3913 1.8873 1.8283 1.738 1.0427 3.587-0.9507 5.1254-2.3627 5.3051-4.869 12.849-3.5934 19.451-2.0764 3.1167 0.7162 6.5398 1.6559 8.3818 4.7013 2.423 4.0041-2.301 8.3286-3.4945 12.856-0.0974 0.3858-0.102 0.7899-0.0134 1.1779 0.0886 0.3879 0.2679 0.7482 0.5219 1.0499 0.255 0.3017 0.577 0.5359 0.939 0.6826 0.363 0.1466 0.754 0.2014 1.142 0.1596 1.981-0.1998 4.327-0.3635 4.444-1.2522 2.493 0.0906 5.546-0.1979 6.614-2.8511 0.327-1.0498 0.499-2.1431 0.512-3.2446 0.392-4.4567 2.242-8.5227 3.468-12.764 1.225-4.2418 1.758-9.2129-0.31-12.974-0.738-1.2513-1.651-2.3857-2.71-3.3673-11.738-11.613-27.17-13.529-41.95-13.511z" fill="#2F2E41"/>
<path d="m62.461 56.198s2.559 22.03-6.8239 23.792c-9.3828 1.7624 8.5299 31.723 8.5299 31.723l42.649 5.287-10.236-35.248s-6.8239-2.6436-2.559-20.267-31.56-5.2871-31.56-5.2871z" fill="#FFB8B8"/>
<path d="m36.259 428l3.4498 48h18.109l-5.1737-48h-16.386z" fill="#FFB8B8"/>
<path d="m169.53 337.75l2.6 40.25 19.939-8.75-7.803-33.25-14.736 1.75z" fill="#FFB8B8"/>
<path d="m23.519 246.99s0.8643 50.174 6.0506 66.61 4.3219 17.301 3.4576 19.896c-0.8644 2.595-1.7288 0.865-1.7288 5.191 0 4.325-1.7288 72.664 0 78.72 1.7287 6.055-5.1863 16.436 0 17.301s29.389 0 30.253-5.191c0.8644-5.19-6.915-6.92-3.4575-10.38s8.6438-74.395 8.6438-74.395l12.101-49.308 22.474-25.952h47.541l14.694 57.094s-6.05 16.436-1.728 16.436 30.253 5.19 30.253-13.841-8.644-75.26-10.373-76.99c-1.728-1.73 0.865-7.786-1.728-10.381-2.594-2.595-32.847-20.761-44.084-24.221-11.237-3.461-27-7.579-27-7.579l-85.369 36.99z" fill="#2F2E41"/>
<path d="m192.16 361.71s-12.743-4.439-18.69 8.878c-5.947 13.316-3.398 16.867-3.398 16.867s19.54 7.102 22.938 3.551c1.478-1.545 6.173-2.082 11.006-2.195 7.36-0.173 9.318-11.054 2.367-13.588-0.207-0.075-0.417-0.141-0.63-0.197-6.796-1.775-13.593-13.316-13.593-13.316z" fill="#2F2E41"/>
<path d="m81.827 71c14.342 0 25.969-11.864 25.969-26.5s-11.627-26.5-25.969-26.5-25.969 11.864-25.969 26.5 11.627 26.5 25.969 26.5z" fill="#FFB8B8"/>
<path d="m48.036 91.519s42.291 8.6679 52.648-5.2005c10.358-13.868 14.673 39.003 14.673 39.003l5.178 55.472-7.767 30.336s-40.565 32.936-53.512 35.536c-12.946 2.601-32.797 4.334-32.797 4.334s6.0416-96.209 6.0416-97.942c0-1.734 15.536-61.539 15.536-61.539z" fill="#0C2A39"/>
<path d="m61.151 74.457s-9.4836-5.384-12.093-0.2115c-2.6097 5.1726-26.967 18.104-29.576 18.104-2.6096 0 5.2194 71.554 1.7398 80.175-3.4795 8.621-20.008 71.554-10.439 76.727 9.5688 5.172 2.6097-5.173 12.178 7.759 9.5688 12.931 56.543 12.931 59.153 7.758 2.6097-5.172-20.877-43.966-16.528-80.174 4.3494-36.208 11.309-86.21 5.2193-93.107-6.0892-6.8967-9.654-17.03-9.654-17.03z" fill="#2F2E41"/>
<path d="m91.137 80.169l1.2484-4.1692s37.292 11.997 39.084 19.825c1.793 7.8282 0.897 62.622-5.377 66.971s-15.237 11.307-8.963 21.744 13.444 21.744 18.822 22.614c5.377 0.869 15.237 6.958 12.548 13.046s-34.955-5.219-34.955-5.219-21.511-15.655-20.615-40.008c0.8962-24.354-1.7926-94.804-1.7926-94.804z" fill="#2F2E41"/>
<path d="m122.54 183l-20.848 37.983s-30.405 30.386-13.031 33.762c17.374 3.376 26.93-27.854 26.93-27.854l22.586-31.23-15.637-12.661z" fill="#FFB8B8"/>
<path d="m72.785 7.0162c-1.0148-0.07805-2.0312 0.12659-2.9442 0.59276-0.8256 0.62585-1.506 1.4352-1.9915 2.369-2.2384 3.4949-5.1561 6.4653-8.5658 8.7204-2.5453 1.6805-5.7811 3.7758-5.3457 6.8741 0.2364 1.0388 0.6571 2.0229 1.2407 2.9018 2.3561 4.3149 3.294 9.3091 2.6719 14.227l6.9985-10.559c1.1109-1.6761 3.0408-3.5683 4.7181-2.5156 0.5616 0.3524 0.9304 0.9846 1.5151 1.2939 1.3953 0.7379 2.8797-0.6728 4.1148-1.6721 4.259-3.4458 10.316-2.5431 15.616-1.4695 2.5021 0.5069 5.2503 1.1719 6.7294 3.3271 2.458 3.5816-0.1086 8.7568 1.3259 12.894 0.4016-0.2918 0.7426-0.6644 1.0029-1.0956 0.2605-0.4311 0.4345-0.9122 0.5125-1.4145 2.001 0.0642 4.452-0.14 5.31-2.0177 0.26-0.7359 0.399-1.5122 0.41-2.2962 0.315-3.154 1.8-6.0315 2.784-9.0334s1.412-6.5199-0.248-9.1815c-0.608-0.9018-1.341-1.7049-2.176-2.383-9.423-8.2187-21.812-9.5741-33.678-9.5619z" fill="#2F2E41"/>
<path d="m122.63 92l8.145 2.1666s18.956 48.645 14.585 81.936c-4.371 33.29-6.994 26.282-6.994 26.282s-6.994-15.77-22.73-12.265l6.994-98.12z" fill="#2F2E41"/>
<path d="m38.041 469.55c-2.1319 2.861-1.7045 6.951-3.5929 9.975-1.6369 2.62-4.7218 3.994-6.7693 6.317-0.6533 0.771-1.2357 1.599-1.7403 2.472-1.8993 3.142-3.4431 7.169-1.5725 10.328 1.5047 2.541 4.6676 3.534 7.5684 4.211 3.6664 0.855 7.4758 1.54 11.184 0.886 3.7088-0.654 7.3334-2.897 8.6557-6.38 0.2599-0.876 0.5689-1.738 0.9255-2.58 2.0102-3.908 8.3153-3.95 10.373-7.835 1.4397-2.718 0.1163-6.004-1.2066-8.779l-4.0405-8.478c-1.3408-2.813-6.7764-1.195-9.61-1.869-3.6957-0.879-7.5159-1.848-10.175 1.732z" fill="#2F2E41"/>
<path d="m8.8197 200.04l36.272 56.064s22.454 28.464 29.363 15.526-24.182-34.501-24.182-34.501l-23.318-43.127-18.136 6.038z" fill="#FFB8B8"/>
<path d="m26.423 93.742l-7.0806-1.7418s-14.161 4.3545-17.701 22.644c-3.5403 18.289-0.88508 91.445 3.5403 92.316 4.4254 0.871 21.857-12.738 24.647-9.853 2.7902 2.886-6.0605-11.92-3.4053-19.758s0-83.607 0-83.607z" fill="#2F2E41"/>
<path d="m353.4 132.75h-22.507v5.39h22.507v-5.39z" fill="#0C2A39"/>
<path d="m431.34 132.75h-7.919v5.39h7.919v-5.39z" fill="#0C2A39"/>
<path d="m447.18 132.75h-7.919v5.39h7.919v-5.39z" fill="#0C2A39"/>
<path d="m415.08 132.75h-53.767v5.39h53.767v-5.39z" fill="#0C2A39"/>
<path d="m325.06 167.58h-22.507v5.391h22.507v-5.391z" fill="#0C2A39"/>
<path d="m403 167.58h-7.919v5.391h7.919v-5.391z" fill="#0C2A39"/>
<path d="m418.83 167.58h-7.919v5.391h7.919v-5.391z" fill="#0C2A39"/>
<path d="m386.74 167.58h-53.767v5.391h53.767v-5.391z" fill="#0C2A39"/>
<path d="m418 144.77h-22.507v5.39h22.507v-5.39z" fill="#0C2A39"/>
<path d="m448.43 144.77h-22.507v5.39h22.507v-5.39z" fill="#0C2A39"/>
<path d="m310.47 144.77h-7.919v5.391h7.919v-5.391z" fill="#0C2A39"/>
<path d="m326.3 144.77h-7.919v5.39h7.919v-5.39z" fill="#0C2A39"/>
<path d="m387.99 144.77h-53.767v5.39h53.767v-5.39z" fill="#0C2A39"/>
<path d="m371.32 156.38h-22.507v5.39h22.507v-5.39z" fill="#0C2A39"/>
<path d="m340.89 156.38h-22.507v5.39h22.507v-5.39z" fill="#0C2A39"/>
<path d="m310.47 156.38h-7.919v5.39h7.919v-5.39z" fill="#0C2A39"/>
<path d="m448.43 156.38h-7.919v5.39h7.919v-5.39z" fill="#0C2A39"/>
<path d="m432.59 156.38h-53.766v5.39h53.766v-5.39z" fill="#0C2A39"/>
</svg>
